<svg xmlns="http://www.w3.org/2000/svg" aria-hidden="true">
  <defs>
   <symbol id="burger-menu" viewBox="0 0 38 32">
<path d="M36.727-0.009h-35.636c-0.2 0-0.364 0.164-0.364 0.364v2.909c0 0.2 0.164 0.364 0.364 0.364h35.636c0.2 0 0.364-0.164 0.364-0.364v-2.909c0-0.2-0.164-0.364-0.364-0.364zM36.727 28.355h-35.636c-0.2 0-0.364 0.164-0.364 0.364v2.909c0 0.2 0.164 0.364 0.364 0.364h35.636c0.2 0 0.364-0.164 0.364-0.364v-2.909c0-0.2-0.164-0.364-0.364-0.364zM36.727 14.173h-35.636c-0.2 0-0.364 0.164-0.364 0.364v2.909c0 0.2 0.164 0.364 0.364 0.364h35.636c0.2 0 0.364-0.164 0.364-0.364v-2.909c0-0.2-0.164-0.364-0.364-0.364z"></path>
</symbol>

    </defs>
</svg>