<svg class="icon logo"><use xlink:href="#logo"> </use> <symbol id="icon-logo" viewBox="0 0 80 32">
<path d="M6.497 19.031v0.379h-5.973v-0.379h0.493c0.576 0 0.994-0.167 1.254-0.502 0.164-0.219 0.247-0.745 0.247-1.578v-8.975c0-0.704-0.045-1.168-0.134-1.393-0.069-0.171-0.209-0.318-0.421-0.441-0.302-0.164-0.617-0.246-0.946-0.246h-0.493v-0.379h5.973v0.379h-0.504c-0.569 0-0.983 0.167-1.244 0.502-0.171 0.219-0.257 0.745-0.257 1.578v8.975c0 0.704 0.045 1.168 0.134 1.393 0.069 0.171 0.212 0.318 0.432 0.441 0.295 0.164 0.607 0.246 0.935 0.246h0.504zM6.733 5.516h3.783l8.522 10.42v-8.012c0-0.854-0.096-1.387-0.288-1.598-0.254-0.287-0.654-0.43-1.203-0.43h-0.483v-0.379h4.852v0.379h-0.493c-0.589 0-1.007 0.178-1.254 0.533-0.151 0.219-0.226 0.717-0.226 1.496v11.711h-0.37l-9.19-11.189v8.555c0 0.854 0.092 1.387 0.278 1.598 0.26 0.287 0.661 0.43 1.203 0.43h0.493v0.379h-4.852v-0.379h0.483c0.596 0 1.018-0.178 1.264-0.533 0.151-0.219 0.226-0.717 0.226-1.496v-9.662c-0.404-0.471-0.713-0.782-0.925-0.932-0.206-0.15-0.511-0.29-0.915-0.42-0.199-0.061-0.5-0.092-0.905-0.092v-0.379zM31.877 5.199v4.805h-0.38c-0.123-0.922-0.346-1.656-0.668-2.203-0.315-0.546-0.768-0.98-1.357-1.301s-1.199-0.481-1.83-0.481c-0.713 0-1.302 0.219-1.768 0.656-0.466 0.43-0.699 0.922-0.699 1.475 0 0.423 0.147 0.809 0.442 1.158 0.425 0.512 1.436 1.195 3.032 2.049 1.302 0.697 2.19 1.233 2.662 1.609 0.48 0.369 0.846 0.806 1.1 1.311 0.26 0.505 0.391 1.035 0.391 1.588 0 1.052-0.411 1.96-1.233 2.725-0.816 0.758-1.867 1.137-3.156 1.137-0.404 0-0.785-0.031-1.141-0.092-0.212-0.034-0.654-0.157-1.326-0.369-0.665-0.219-1.086-0.328-1.264-0.328-0.171 0-0.308 0.051-0.411 0.154-0.096 0.102-0.168 0.314-0.216 0.635h-0.38v-4.764h0.38c0.178 0.997 0.418 1.745 0.72 2.244 0.302 0.492 0.761 0.902 1.378 1.23 0.624 0.328 1.306 0.492 2.046 0.492 0.857 0 1.532-0.225 2.025-0.676 0.5-0.451 0.75-0.984 0.75-1.598 0-0.341-0.096-0.686-0.288-1.035-0.185-0.348-0.476-0.673-0.874-0.973-0.267-0.205-0.997-0.639-2.189-1.301-1.192-0.669-2.042-1.202-2.549-1.598-0.5-0.396-0.881-0.833-1.141-1.311s-0.391-1.004-0.391-1.578c0-0.997 0.384-1.854 1.151-2.572 0.768-0.724 1.744-1.086 2.93-1.086 0.74 0 1.525 0.181 2.354 0.543 0.384 0.171 0.654 0.256 0.812 0.256 0.178 0 0.322-0.051 0.432-0.154 0.117-0.109 0.209-0.324 0.278-0.645h0.38zM38.261 12.904v4.047c0 0.874 0.096 1.417 0.288 1.629 0.26 0.301 0.654 0.451 1.182 0.451h0.535v0.379h-5.972v-0.379h0.524c0.589 0 1.011-0.191 1.264-0.574 0.137-0.212 0.206-0.714 0.206-1.506v-8.975c0-0.874-0.093-1.417-0.278-1.629-0.267-0.301-0.665-0.451-1.192-0.451h-0.524v-0.379h5.109c1.247 0 2.231 0.13 2.95 0.389 0.72 0.253 1.326 0.683 1.819 1.291s0.74 1.328 0.74 2.162c0 1.134-0.377 2.056-1.131 2.766-0.747 0.71-1.806 1.066-3.176 1.066-0.336 0-0.699-0.024-1.090-0.072s-0.809-0.12-1.254-0.215zM38.261 12.32c0.363 0.068 0.685 0.119 0.966 0.154s0.521 0.051 0.72 0.051c0.713 0 1.326-0.273 1.84-0.82 0.521-0.553 0.781-1.267 0.781-2.141 0-0.601-0.123-1.158-0.37-1.67-0.247-0.519-0.596-0.905-1.048-1.158-0.452-0.26-0.966-0.389-1.542-0.389-0.35 0-0.798 0.065-1.347 0.195v5.779zM52.159 19.031v0.379h-5.972v-0.379h0.493c0.576 0 0.994-0.167 1.254-0.502 0.164-0.219 0.247-0.745 0.247-1.578v-8.975c0-0.704-0.045-1.168-0.134-1.393-0.069-0.171-0.209-0.318-0.422-0.441-0.301-0.164-0.617-0.246-0.946-0.246h-0.493v-0.379h5.972v0.379h-0.504c-0.569 0-0.983 0.167-1.244 0.502-0.171 0.219-0.257 0.745-0.257 1.578v8.975c0 0.704 0.045 1.168 0.134 1.393 0.069 0.171 0.212 0.318 0.432 0.441 0.295 0.164 0.606 0.246 0.935 0.246h0.504zM66.9 19.41h-3.721l-4.719-6.496c-0.349 0.014-0.634 0.020-0.853 0.020-0.089 0-0.185 0-0.288 0-0.102-0.007-0.209-0.014-0.318-0.020v4.037c0 0.874 0.096 1.417 0.288 1.629 0.26 0.301 0.651 0.451 1.171 0.451h0.545v0.379h-5.972v-0.379h0.524c0.589 0 1.011-0.191 1.264-0.574 0.145-0.212 0.216-0.714 0.216-1.506v-8.975c0-0.874-0.096-1.417-0.288-1.629-0.267-0.301-0.665-0.451-1.192-0.451h-0.524v-0.379h5.078c1.481 0 2.57 0.109 3.269 0.328 0.706 0.212 1.302 0.608 1.789 1.189 0.493 0.574 0.74 1.26 0.74 2.059 0 0.854-0.281 1.595-0.843 2.223-0.555 0.628-1.418 1.072-2.59 1.332l2.878 3.986c0.658 0.915 1.223 1.523 1.697 1.824s1.090 0.492 1.85 0.574v0.379zM57.001 12.268c0.13 0 0.243 0.003 0.339 0.010 0.097 0 0.175 0 0.237 0 1.329 0 2.33-0.287 3.002-0.861 0.678-0.574 1.017-1.305 1.017-2.193 0-0.867-0.274-1.571-0.822-2.111-0.542-0.546-1.261-0.82-2.159-0.82-0.397 0-0.935 0.065-1.614 0.195v5.779zM71.114 6.274v5.492h3.064c0.795 0 1.325-0.12 1.593-0.359 0.356-0.314 0.555-0.868 0.596-1.66h0.38v4.836h-0.38c-0.097-0.676-0.192-1.11-0.288-1.301-0.124-0.239-0.326-0.427-0.607-0.564s-0.713-0.205-1.294-0.205h-3.064v4.58c0 0.615 0.027 0.99 0.082 1.127 0.055 0.13 0.151 0.236 0.288 0.318 0.137 0.075 0.398 0.113 0.781 0.113h2.364c0.788 0 1.361-0.055 1.717-0.164s0.699-0.324 1.028-0.645c0.425-0.424 0.86-1.062 1.305-1.916h0.411l-1.203 3.484h-10.742v-0.379h0.494c0.329 0 0.641-0.079 0.935-0.236 0.219-0.109 0.366-0.273 0.442-0.492 0.082-0.219 0.123-0.666 0.123-1.342v-9.027c0-0.881-0.089-1.424-0.267-1.629-0.246-0.273-0.658-0.41-1.233-0.41h-0.494v-0.379h10.742l0.154 3.043h-0.401c-0.144-0.731-0.305-1.233-0.483-1.506-0.172-0.273-0.428-0.482-0.771-0.625-0.274-0.102-0.757-0.154-1.449-0.154h-3.825z"></path>
<path d="M19.28 22.643l0.127 1.889h-0.127c-0.17-0.566-0.413-0.973-0.728-1.221s-0.694-0.373-1.135-0.373c-0.37 0-0.705 0.094-1.003 0.283-0.299 0.186-0.534 0.484-0.707 0.893-0.17 0.41-0.255 0.919-0.255 1.529 0 0.503 0.081 0.939 0.243 1.307s0.404 0.652 0.728 0.848c0.326 0.197 0.698 0.295 1.114 0.295 0.362 0 0.681-0.076 0.958-0.23 0.277-0.156 0.581-0.463 0.913-0.922l0.127 0.082c-0.28 0.495-0.606 0.857-0.979 1.086s-0.816 0.344-1.328 0.344c-0.924 0-1.639-0.342-2.146-1.025-0.378-0.508-0.567-1.107-0.567-1.795 0-0.555 0.125-1.064 0.374-1.529s0.592-0.824 1.028-1.078c0.439-0.257 0.917-0.385 1.435-0.385 0.403 0 0.8 0.098 1.192 0.295 0.115 0.060 0.197 0.090 0.247 0.090 0.074 0 0.138-0.026 0.193-0.078 0.071-0.074 0.122-0.176 0.152-0.307h0.144zM23.68 26.467h-2.159l-0.378 0.877c-0.093 0.216-0.14 0.377-0.14 0.484 0 0.085 0.040 0.16 0.119 0.225 0.082 0.063 0.258 0.104 0.526 0.123v0.152h-1.756v-0.152c0.233-0.041 0.384-0.094 0.452-0.16 0.14-0.131 0.295-0.398 0.465-0.799l1.961-4.574h0.144l1.941 4.623c0.156 0.372 0.297 0.613 0.423 0.725 0.129 0.109 0.307 0.171 0.535 0.184v0.152h-2.2v-0.152c0.222-0.011 0.371-0.048 0.448-0.111 0.079-0.063 0.119-0.139 0.119-0.23 0-0.12-0.055-0.31-0.164-0.57l-0.337-0.799zM23.565 26.164l-0.946-2.246-0.97 2.246h1.916zM30.74 26.791l0.136 0.029-0.477 1.508h-4.317v-0.152h0.21c0.236 0 0.404-0.076 0.506-0.23 0.058-0.087 0.086-0.29 0.086-0.607v-3.586c0-0.347-0.038-0.564-0.115-0.652-0.107-0.12-0.266-0.18-0.477-0.18h-0.21v-0.152h2.525v0.152c-0.296-0.003-0.504 0.025-0.625 0.082-0.118 0.057-0.199 0.13-0.243 0.217s-0.066 0.296-0.066 0.627v3.492c0 0.227 0.022 0.383 0.066 0.467 0.033 0.057 0.084 0.1 0.152 0.127s0.282 0.041 0.641 0.041h0.407c0.428 0 0.728-0.031 0.9-0.094s0.33-0.174 0.473-0.332c0.142-0.161 0.285-0.414 0.428-0.758zM33.66 28.176v0.152h-2.389v-0.152h0.197c0.23 0 0.397-0.067 0.502-0.201 0.066-0.087 0.099-0.298 0.099-0.631v-3.59c0-0.281-0.018-0.467-0.053-0.557-0.027-0.068-0.084-0.127-0.169-0.176-0.121-0.066-0.247-0.098-0.378-0.098h-0.197v-0.152h2.389v0.152h-0.202c-0.228 0-0.393 0.067-0.498 0.201-0.069 0.087-0.103 0.298-0.103 0.631v3.59c0 0.281 0.018 0.467 0.053 0.557 0.027 0.068 0.085 0.127 0.173 0.176 0.118 0.066 0.243 0.098 0.374 0.098h0.202zM35.588 23.074v2.184h1.016c0.233 0 0.403-0.050 0.51-0.152 0.11-0.104 0.182-0.307 0.218-0.611h0.152v1.881h-0.152c-0.003-0.216-0.032-0.374-0.086-0.475-0.052-0.101-0.126-0.176-0.222-0.225-0.093-0.052-0.233-0.078-0.419-0.078h-1.016v1.746c0 0.281 0.018 0.467 0.053 0.557 0.027 0.068 0.085 0.127 0.173 0.176 0.121 0.066 0.247 0.098 0.378 0.098h0.201v0.152h-2.393v-0.152h0.197c0.23 0 0.398-0.067 0.502-0.201 0.066-0.087 0.099-0.298 0.099-0.631v-3.59c0-0.281-0.018-0.467-0.053-0.557-0.027-0.068-0.084-0.127-0.169-0.176-0.118-0.066-0.244-0.098-0.378-0.098h-0.197v-0.152h4.149l0.053 1.221h-0.144c-0.071-0.26-0.155-0.449-0.251-0.57-0.093-0.123-0.21-0.212-0.349-0.266-0.137-0.055-0.351-0.082-0.642-0.082h-1.229zM41.632 22.643c0.724 0 1.35 0.275 1.879 0.824 0.532 0.546 0.798 1.23 0.798 2.049 0 0.844-0.267 1.545-0.802 2.102s-1.181 0.836-1.941 0.836c-0.768 0-1.413-0.272-1.937-0.816-0.521-0.544-0.781-1.247-0.781-2.111 0-0.883 0.301-1.602 0.905-2.16 0.524-0.484 1.15-0.725 1.879-0.725zM41.554 22.943c-0.499 0-0.899 0.184-1.201 0.553-0.376 0.459-0.563 1.131-0.563 2.016 0 0.907 0.195 1.605 0.584 2.094 0.299 0.372 0.694 0.557 1.184 0.557 0.524 0 0.955-0.204 1.295-0.611 0.343-0.407 0.514-1.049 0.514-1.926 0-0.951-0.188-1.66-0.563-2.127-0.302-0.372-0.718-0.557-1.25-0.557zM50.329 28.328h-1.488l-1.887-2.598c-0.14 0.005-0.254 0.008-0.341 0.008-0.036 0-0.074 0-0.115 0-0.041-0.003-0.084-0.005-0.128-0.008v1.615c0 0.35 0.038 0.567 0.115 0.652 0.104 0.12 0.26 0.18 0.469 0.18h0.218v0.152h-2.389v-0.152h0.21c0.236 0 0.404-0.076 0.506-0.23 0.058-0.085 0.086-0.285 0.086-0.602v-3.59c0-0.35-0.038-0.567-0.115-0.652-0.107-0.12-0.266-0.18-0.477-0.18h-0.21v-0.152h2.031c0.592 0 1.028 0.044 1.308 0.131 0.282 0.085 0.521 0.243 0.715 0.475 0.197 0.23 0.296 0.504 0.296 0.824 0 0.342-0.112 0.638-0.337 0.889-0.222 0.251-0.567 0.429-1.036 0.533l1.151 1.594c0.263 0.366 0.489 0.609 0.678 0.73s0.436 0.197 0.74 0.23v0.152zM46.369 25.471c0.052 0 0.097 0.001 0.136 0.004 0.038 0 0.070 0 0.095 0 0.532 0 0.932-0.115 1.201-0.344 0.271-0.229 0.407-0.522 0.407-0.877 0-0.347-0.11-0.628-0.329-0.844-0.217-0.219-0.504-0.328-0.864-0.328-0.159 0-0.374 0.026-0.646 0.078v2.312zM50.144 22.77h1.513l3.409 4.168v-3.205c0-0.342-0.038-0.555-0.115-0.639-0.101-0.115-0.261-0.172-0.481-0.172h-0.193v-0.152h1.941v0.152h-0.197c-0.236 0-0.403 0.071-0.502 0.213-0.060 0.087-0.091 0.287-0.091 0.598v4.684h-0.148l-3.676-4.475v3.422c0 0.341 0.037 0.555 0.111 0.639 0.104 0.115 0.265 0.172 0.481 0.172h0.197v0.152h-1.941v-0.152h0.193c0.239 0 0.407-0.071 0.506-0.213 0.060-0.087 0.090-0.287 0.090-0.598v-3.865c-0.162-0.189-0.285-0.313-0.37-0.373-0.082-0.060-0.204-0.116-0.366-0.168-0.079-0.025-0.2-0.037-0.362-0.037v-0.152zM58.939 28.176v0.152h-2.389v-0.152h0.197c0.231 0 0.398-0.067 0.502-0.201 0.066-0.087 0.099-0.298 0.099-0.631v-3.59c0-0.281-0.018-0.467-0.053-0.557-0.028-0.068-0.083-0.127-0.169-0.176-0.121-0.066-0.247-0.098-0.379-0.098h-0.197v-0.152h2.389v0.152h-0.201c-0.228 0-0.394 0.067-0.498 0.201-0.068 0.087-0.102 0.298-0.102 0.631v3.59c0 0.281 0.018 0.467 0.053 0.557 0.028 0.068 0.085 0.127 0.173 0.176 0.118 0.066 0.243 0.098 0.374 0.098h0.201zM62.997 26.467h-2.158l-0.379 0.877c-0.093 0.216-0.14 0.377-0.14 0.484 0 0.085 0.040 0.16 0.119 0.225 0.082 0.063 0.258 0.104 0.526 0.123v0.152h-1.756v-0.152c0.233-0.041 0.383-0.094 0.452-0.16 0.14-0.131 0.295-0.398 0.465-0.799l1.962-4.574h0.143l1.941 4.623c0.156 0.372 0.297 0.613 0.423 0.725 0.129 0.109 0.307 0.171 0.535 0.184v0.152h-2.2v-0.152c0.222-0.011 0.371-0.048 0.448-0.111 0.079-0.063 0.119-0.139 0.119-0.23 0-0.12-0.055-0.31-0.164-0.57l-0.338-0.799zM62.883 26.164l-0.946-2.246-0.971 2.246h1.916z"></path>
</symbol>

</svg>